<svg width="186" height="64" viewBox="0 0 186 64" fill="none" xmlns="http://www.w3.org/2000/svg">
<g style="mix-blend-mode:luminosity" clip-path="url(#clip0_1_683)">
<path d="M38.4394 34.2588C38.1503 34.2588 37.8911 34.3649 37.6944 34.5614C37.3354 34.9055 36.9203 35.1777 36.4608 35.3712C35.5499 35.7545 34.4043 35.7587 33.4788 35.3603C33.0125 35.1602 32.5984 34.8812 32.2477 34.5313C31.897 34.1814 31.6174 33.7684 31.4166 33.3029C31.2171 32.841 31.1159 32.339 31.1159 31.8104C31.1159 31.2815 31.2173 30.7749 31.4172 30.3046C31.6182 29.8324 31.8975 29.4157 32.2477 29.0665C32.5982 28.7166 33.0125 28.4376 33.4788 28.2369C34.4058 27.8388 35.5501 27.843 36.4608 28.2265C36.9212 28.4201 37.3373 28.678 37.6978 28.993C38.1016 29.3873 38.7898 29.3837 39.1894 28.9847C39.449 28.7253 39.5316 28.4017 39.4218 28.0731C39.331 27.8012 39.217 27.6109 39.0827 27.4996C38.919 27.3523 38.7065 27.181 38.4513 26.9897C38.1868 26.7923 37.8833 26.6055 37.5489 26.4343C37.212 26.2624 36.8303 26.1132 36.4144 25.9911C35.989 25.8662 35.5213 25.8028 35.0114 25.8028C35.0105 25.8028 35.0095 25.8028 35.0085 25.8028C34.1576 25.8355 33.357 26.0139 32.6287 26.3327C31.8993 26.6515 31.2586 27.0833 30.7245 27.6164C30.1891 28.1505 29.7635 28.7833 29.4598 29.4963C29.1547 30.2114 29 30.9899 29 31.8104C29 32.6623 29.1588 33.4612 29.472 34.1843C29.7842 34.9064 30.2188 35.5395 30.7633 36.0662C31.3053 36.5912 31.9429 37.0075 32.6584 37.3027C33.3747 37.5985 34.1539 37.7484 34.9744 37.7484C35.4829 37.7484 35.9625 37.694 36.4 37.5868C36.8325 37.481 37.2309 37.3441 37.5842 37.1803C37.9376 37.0165 38.2487 36.8359 38.5084 36.6436C38.7618 36.4563 38.9671 36.2847 39.1191 36.1329C39.3508 35.9018 39.474 35.6347 39.4856 35.3383C39.4964 35.0372 39.394 34.7705 39.1894 34.5663C38.9877 34.3649 38.7284 34.2588 38.4394 34.2588Z" fill="url(#paint0_linear_1_683)"/>
<path d="M46.9884 26.8114C46.9884 26.5197 46.8757 26.2589 46.662 26.0566C46.4505 25.8572 46.173 25.7559 45.8303 25.7559C45.8303 25.7559 45.8301 25.7559 45.83 25.7559C45.0251 25.7724 44.2576 25.9387 43.5487 26.2511C42.8418 26.5628 42.2126 26.9953 41.6786 27.5365C41.1444 28.078 40.7194 28.7137 40.4157 29.4265C40.1106 30.1412 39.9561 30.9118 39.9561 31.7168V36.7162C39.9561 37.0045 40.0627 37.2632 40.2641 37.4642C40.4657 37.6655 40.7249 37.7717 41.014 37.7717C41.303 37.7717 41.5623 37.6655 41.764 37.4642C41.9654 37.2632 42.072 37.0045 42.072 36.7162V31.7168C42.072 31.2028 42.1698 30.7072 42.3625 30.244C42.5555 29.7805 42.8267 29.3724 43.1686 29.0312C43.5134 28.6875 43.9216 28.4078 44.3819 28.1997C44.8384 27.9932 45.3312 27.8812 45.8368 27.8669C46.1728 27.8669 46.4505 27.7656 46.6624 27.5659C46.8757 27.3639 46.9884 27.103 46.9884 26.8114Z" fill="url(#paint1_linear_1_683)"/>
<path d="M67.8078 31.8188C67.8068 32.3438 67.7057 32.8429 67.5072 33.3026C67.3062 33.768 67.0266 34.1814 66.6762 34.5313C66.3253 34.8812 65.911 35.1602 65.4449 35.3606C64.5188 35.7584 63.3815 35.7587 62.4401 35.3596C61.9667 35.1592 61.5491 34.8806 61.1992 34.5313C60.8485 34.1814 60.5687 33.768 60.368 33.3029C60.1684 32.8413 60.0675 32.3393 60.0675 31.8104C60.0675 31.2812 60.1689 30.7746 60.3686 30.3046C60.5694 29.8327 60.849 29.4161 61.1994 29.0665C61.5491 28.7172 61.9667 28.4386 62.4401 28.2378C62.9119 28.0385 63.4196 27.9372 63.9494 27.9372C64.4641 27.9372 64.9564 28.0346 65.4121 28.2265C65.8691 28.4185 66.2746 28.6894 66.6176 29.0312C66.961 29.374 67.241 29.7883 67.4497 30.2618C67.6573 30.7341 67.7778 31.2578 67.8078 31.8188ZM55.6826 30.7082H48.2652C48.3547 30.4075 48.4782 30.1198 48.6337 29.8498C48.8548 29.4653 49.1364 29.1303 49.4708 28.8536C49.8084 28.5738 50.195 28.3486 50.6201 28.1831C51.4589 27.8569 52.4648 27.8566 53.3052 28.1831C53.7299 28.3483 54.1167 28.5738 54.4546 28.8536C54.7899 29.1312 55.0763 29.4679 55.3057 29.8537C55.4658 30.1234 55.5919 30.4095 55.6826 30.7082ZM68.116 22.3487C67.9144 22.5498 67.8078 22.8087 67.8078 23.0971V27.473C67.403 27.1182 66.9508 26.7968 66.4562 26.5126C65.694 26.0747 64.8388 25.8358 63.9146 25.8027L63.9025 25.8024C63.1096 25.8024 62.3432 25.9656 61.6243 26.287C60.9119 26.6055 60.2758 27.0412 59.7344 27.5814C59.1929 28.1216 58.7564 28.7606 58.4363 29.4802C58.1359 30.1575 57.9795 30.8877 57.9595 31.6502C57.9257 30.8498 57.7471 30.0874 57.4275 29.3844C57.1074 28.68 56.67 28.0566 56.1271 27.5313C55.5869 27.0085 54.96 26.5861 54.2639 26.2751C53.56 25.9617 52.8024 25.8027 51.9984 25.8027C51.998 25.8027 51.9972 25.8027 51.9968 25.8027C51.1459 25.8355 50.3453 26.0139 49.6169 26.3327C48.8876 26.6514 48.2469 27.0833 47.7128 27.6163C47.1773 28.1505 46.7517 28.7833 46.4481 29.4963C46.143 30.2114 45.9883 30.9898 45.9883 31.8104C45.9883 32.6623 46.1471 33.4612 46.4602 34.1843C46.7725 34.9064 47.207 35.5395 47.7516 36.0662C48.2936 36.5912 48.9312 37.0074 49.6467 37.3027C50.3629 37.5985 51.1422 37.7484 51.9628 37.7484C52.8422 37.7484 53.6336 37.6196 54.3147 37.3651C55.0107 37.1062 55.6418 36.663 56.1776 36.0626C56.379 35.8617 56.4855 35.603 56.4855 35.3146C56.4855 35.0262 56.379 34.7672 56.1776 34.5663C55.976 34.3649 55.7166 34.2588 55.4276 34.2588C55.1385 34.2588 54.8793 34.3649 54.6825 34.5614C54.3237 34.9054 53.9086 35.1777 53.4491 35.3712C52.5878 35.7331 51.5152 35.7613 50.6068 35.414C50.1756 35.2492 49.7867 35.0207 49.4506 34.7349C49.1135 34.4488 48.8266 34.1044 48.5976 33.7111C48.4347 33.4321 48.311 33.1333 48.2274 32.8193H56.9027C57.1708 32.8193 57.4208 32.7219 57.6453 32.5296C57.7767 32.4174 57.9199 32.2314 57.9587 31.9532C57.9764 32.7071 58.1292 33.4308 58.424 34.104C58.7351 34.8152 59.1637 35.4499 59.6975 35.9908C60.2322 36.5329 60.8702 36.9661 61.5937 37.2774C62.3188 37.5898 63.1115 37.7484 63.9494 37.7484C64.7537 37.7484 65.5285 37.5985 66.2523 37.3033C66.976 37.0078 67.6179 36.5915 68.1604 36.0662C68.7046 35.5402 69.1388 34.9071 69.4516 34.1843C69.7649 33.4602 69.9238 32.6613 69.9238 31.8104V23.0971C69.9238 22.8083 69.8173 22.5498 69.6156 22.3487C69.2131 21.9467 68.5186 21.9467 68.116 22.3487Z" fill="url(#paint2_linear_1_683)"/>
<path d="M72.3156 22.2983C71.9602 22.2983 71.6527 22.4255 71.4016 22.676C71.1508 22.9262 71.0234 23.2327 71.0234 23.5875C71.0234 23.9423 71.1508 24.2491 71.4016 24.4993C71.6524 24.7499 71.9598 24.8767 72.3156 24.8767C72.6713 24.8767 72.9786 24.7499 73.2294 24.4993C73.4803 24.2491 73.6076 23.9423 73.6076 23.5875C73.6076 23.2327 73.4803 22.9262 73.2294 22.676C72.9784 22.4255 72.6709 22.2983 72.3156 22.2983Z" fill="url(#paint3_linear_1_683)"/>
<path d="M71.566 26.0864C71.3643 26.2873 71.2578 26.5463 71.2578 26.8347V36.7162C71.2578 37.0043 71.3643 37.2632 71.566 37.4642C71.7676 37.6655 72.0267 37.7717 72.3159 37.7717C72.6048 37.7717 72.864 37.6655 73.0654 37.4642C73.2672 37.2632 73.3737 37.0045 73.3737 36.7162V26.8347C73.3737 26.546 73.2672 26.2873 73.0656 26.0864C72.663 25.6843 71.9685 25.6843 71.566 26.0864Z" fill="url(#paint4_linear_1_683)"/>
<path d="M80.2463 37.777V37.7562H79.9961V37.7354H79.8502V37.7146H79.7251V37.6938H79.5791V37.673H79.4332V37.6522H79.3498V37.6314H79.2873V37.6106H79.2039V37.5898H79.1205V37.569H79.0371V37.5482H78.9537V37.5274H78.8703V37.5066H78.8077V37.4858H78.7452V37.465H78.7035V37.4442H78.6409V37.4233H78.5784V37.4025H78.5159V37.3817H78.4533V37.3609H78.4116V37.3401H78.3491V37.3193H78.3074V37.2985H78.2657V37.2777H78.224V37.2569H78.1614V37.2361H78.1197V37.2153H78.078V37.1945H78.0363V37.1737H77.9946V37.1529H77.9529V37.1321H77.9112V37.1113H77.8695V37.0905H77.8278V37.0697H77.807V37.0489H77.7653V37.0281H77.7236V37.0073H77.7028V36.9865H77.6611V36.9657H77.6194V36.9449H77.5985V36.9241H77.5568V36.9033H77.5151V36.8825H77.4943V36.8617H77.4526V36.8409H77.4109V36.8201H77.39V36.7993H77.3483V36.7785H77.3066V36.7577H77.2858V36.7369H77.2649V36.716H77.2232V36.6952H77.2024V36.6744H77.1815V36.6536H77.1398V36.6328H77.119V36.612H77.0981V36.5912H77.0564V36.5704H77.0356V36.5496H76.9939V36.5288H76.973V36.508H76.9522V36.4872H76.9105V36.4664H76.8897V36.4456H76.8688V36.4248H76.8271V36.404H76.8063V36.3832H76.7854V36.3624H76.7646V36.3416H76.7437V36.3208H76.7229V36.3H76.702V36.2792H76.6812V36.2584H76.6395V36.2376H76.6186V36.2168H76.5978V36.196H76.5769V36.1752H76.5561V36.1544H76.5352V36.1336H76.5144V36.1128H76.4935V36.092H76.4727V36.0712H76.4518V36.0504H76.431V36.0295H76.4101V36.0087H76.3893V35.9879H76.3684V35.9671H76.3476V35.9463H76.3267V35.9255H76.3059V35.9047H76.285V35.8839H76.2642V35.8631H76.2433V35.8423H76.2225V35.8215H76.2016V35.7799H76.1808V35.7591H76.1599V35.7383H76.1391V35.7175H76.1183V35.6967H76.0974V35.6759H76.0766V35.6551H76.0557V35.6343H76.0349V35.5927H76.014V35.5719H75.9932V35.5511H75.9723V35.5095H75.9515V35.4887H75.9306V35.4679H75.9098V35.4263H75.8889V35.4055H75.8681V35.3639H75.8472V35.3431H75.8264V35.3222H75.8055V35.2806H75.7847V35.2598H75.7638V35.239H75.743V35.1974H75.7221V35.1766H75.7013V35.1558H75.6804V35.1142H75.6596V35.0726H75.6387V35.0518H75.6179V35.0102H75.597V34.9686H75.5762V34.9478H75.5553V34.9062H75.5345V34.8646H75.5136V34.8438H75.4928V34.8022H75.4719V34.7814H75.4511V34.7398H75.4302V34.6982H75.4094V34.6774H75.3885V34.6357H75.3677V34.5941H75.3468V34.5525H75.326V34.5109H75.3051V34.4693H75.2843V34.4277H75.2635V34.3861H75.2426V34.3445H75.2218V34.3029H75.2009V34.2613H75.1801V34.1989H75.1592V34.1573H75.1384V34.1157H75.1175V34.0533H75.0967V34.0117H75.0758V33.9492H75.055V33.8868H75.0341V33.8244H75.0133V33.7828H74.9924V33.7204H74.9716V33.658H74.9507V33.5956H74.9299V33.5124H74.909V33.4292H74.8882V33.346H74.8673V33.2628H74.8465V33.2003H74.8256V33.1171H74.8048V33.0339H74.7839V32.8883H74.7631V32.7635H74.7422V32.6179H74.7214V32.4722H74.7005V32.2226H74.6797V22.8613H74.7005V22.778H74.7214V22.6948H74.7422V22.6324H74.7631V22.5908H74.7839V22.5492H74.8048V22.5076H74.8256V22.4868H74.8465V22.4452H74.8673V22.4244H74.8882V22.3828H74.909V22.362H74.9299V22.3412H74.9507V22.3204H74.9716V22.2996H74.9924V22.2788H75.0133V22.258H75.0341V22.2372H75.055V22.2164H75.0758V22.1956H75.1175V22.1748H75.1384V22.154H75.1801V22.1331H75.2218V22.1123H75.2635V22.0915H75.3051V22.0707H75.3468V22.0499H75.4094V22.0291H75.4928V22.0083H75.9932V22.0291H76.0557V22.0499H76.1391V22.0707H76.1808V22.0915H76.2225V22.1123H76.2642V22.1331H76.3059V22.154H76.3476V22.1748H76.3684V22.1956H76.4101V22.2164H76.431V22.2372H76.4518V22.258H76.4727V22.2788H76.4935V22.2996H76.5144V22.3204H76.5352V22.3412H76.5561V22.362H76.5769V22.3828H76.5978V22.4244H76.6186V22.4452H76.6395V22.4868H76.6603V22.5284H76.6812V22.5492H76.702V22.5908H76.7229V22.6324H76.7437V22.7156H76.7646V22.778H76.7854V22.8613H76.8063V25.6905H81.7266V25.7113H81.9142V25.7321H81.9976V25.7529H82.0601V25.7737H82.1227V25.7945H82.1852V25.8153H82.2269V25.8361H82.2686V25.8569H82.3103V25.8777H82.3312V25.8985H82.3729V25.9193H82.3937V25.9401H82.4146V25.9609H82.4563V25.9817H82.4771V26.0025H82.498V26.0233H82.5188V26.0441H82.5397V26.0857H82.5605V26.1065H82.5814V26.1273H82.6022V26.1481H82.6231V26.1897H82.6439V26.2313H82.6648V26.2521H82.6856V26.2937H82.7065V26.3354H82.7273V26.3978H82.7481V26.4602H82.769V26.5226H82.7898V26.6682H82.8107V26.8554H82.7898V27.001H82.769V27.0635H82.7481V27.1259H82.7273V27.1883H82.7065V27.2299H82.6856V27.2715H82.6648V27.3131H82.6439V27.3339H82.6231V27.3755H82.6022V27.3963H82.5814V27.4171H82.5605V27.4587H82.5397V27.4795H82.5188V27.5003H82.498V27.5211H82.4771V27.5419H82.4563V27.5627H82.4354V27.5835H82.3937V27.6043H82.3729V27.6251H82.352V27.6459H82.3103V27.6667H82.2686V27.6875H82.2269V27.7084H82.1852V27.7292H82.1435V27.75H82.081V27.7708H82.0184V27.7916H81.935V27.8124H81.7891V27.8332H76.8063V31.9938H76.8271V32.2434H76.848V32.389H76.8688V32.5346H76.8897V32.6179H76.9105V32.7011H76.9314V32.7843H76.9522V32.8675H76.973V32.9507H76.9939V33.0131H77.0147V33.0755H77.0356V33.1171H77.0564V33.1795H77.0773V33.2419H77.0981V33.2836H77.119V33.3252H77.1398V33.3876H77.1607V33.4292H77.1815V33.4708H77.2024V33.5124H77.2232V33.554H77.2441V33.5956H77.2649V33.6372H77.2858V33.658H77.3066V33.6996H77.3275V33.7412H77.3483V33.762H77.3692V33.8036H77.39V33.8452H77.4109V33.866H77.4317V33.9076H77.4526V33.9284H77.4734V33.9701H77.4943V33.9909H77.5151V34.0325H77.536V34.0533H77.5568V34.0741H77.5777V34.1157H77.5985V34.1365H77.6194V34.1573H77.6402V34.1989H77.6611V34.2197H77.6819V34.2405H77.7028V34.2613H77.7236V34.3029H77.7445V34.3237H77.7653V34.3445H77.7861V34.3653H77.807V34.3861H77.8278V34.4069H77.8487V34.4277H77.8695V34.4485H77.8904V34.4693H77.9112V34.4901H77.9321V34.5109H77.9529V34.5317H77.9738V34.5525H77.9946V34.5733H78.0155V34.5941H78.0363V34.6149H78.0572V34.6357H78.078V34.6566H78.0989V34.6774H78.1197V34.6982H78.1406V34.719H78.1614V34.7398H78.2031V34.7606H78.224V34.7814H78.2448V34.8022H78.2657V34.823H78.3074V34.8438H78.3282V34.8646H78.3491V34.8854H78.3908V34.9062H78.4116V34.927H78.4325V34.9478H78.4742V34.9686H78.495V34.9894H78.5367V35.0102H78.5576V35.031H78.5993V35.0518H78.6409V35.0726H78.6618V35.0934H78.7035V35.1142H78.7243V35.135H78.766V35.1558H78.8077V35.1766H78.8286V35.1974H78.8703V35.2182H78.912V35.239H78.9537V35.2598H78.9954V35.2806H79.0371V35.3014H79.0788V35.3222H79.1413V35.3431H79.183V35.3639H79.2247V35.3847H79.2873V35.4055H79.3498V35.4263H79.4124V35.4471H79.454V35.4679H79.5166V35.4887H79.6V35.5095H79.6834V35.5303H79.7668V35.5511H79.8502V35.5719H79.9544V35.5927H80.1004V35.6135H80.2463V35.6343H80.5799V35.6551H80.7258V35.6343H81.0803V35.6135H81.2262V35.5927H81.3721V35.5719H81.4764V35.5511H81.5598V35.5303H81.6432V35.5095H81.7266V35.4887H81.81V35.4679H81.8725V35.4471H81.935V35.4263H81.9976V35.4055H82.0601V35.3847H82.1018V35.3639H82.1435V35.3431H82.2061V35.3222H82.2478V35.3014H82.2895V35.2806H82.3312V35.2598H82.3729V35.239H82.4146V35.2182H82.4563V35.1974H82.498V35.1766H82.5188V35.1558H82.5605V35.135H82.6022V35.1142H82.6231V35.0934H82.6648V35.0726H82.7065V35.0518H82.7273V35.031H82.769V35.0102H82.7898V34.9894H82.8315V34.9686H82.8524V34.9478H82.8941V34.927H82.9149V34.9062H82.9358V34.8854H82.9775V34.8646H82.9983V34.8438H83.0192V34.823H83.0609V34.8022H83.0817V34.7814H83.1026V34.7606H83.1234V34.7398H83.1443V34.719H83.1651V34.6982H83.2068V34.6774H83.2277V34.6566H83.2485V34.6357H83.2694V34.6149H83.2902V34.5941H83.3111V34.5733H83.3319V34.5525H83.3528V34.5317H83.3736V34.5109H83.3945V34.4901H83.4153V34.4693H83.4362V34.4485H83.457V34.4277H83.4987V34.4069H83.5196V34.3861H83.5613V34.3653H83.6029V34.3445H83.6238V34.3237H83.6655V34.3029H83.728V34.2821H83.7697V34.2613H83.8323V34.2405H83.9365V34.2197H84.3535V34.2405H84.4577V34.2613H84.5203V34.2821H84.562V34.3029H84.6245V34.3237H84.6662V34.3445H84.7079V34.3653H84.7496V34.3861H84.7705V34.4069H84.8122V34.4277H84.833V34.4485H84.8539V34.4693H84.8747V34.4901H84.8956V34.5109H84.9164V34.5317H84.9373V34.5733H84.9581V34.5941H84.979V34.6357H84.9998V34.6566H85.0207V34.6982H85.0415V34.719H85.0624V34.7606H85.0832V34.823H85.1041V34.8646H85.1249V34.927H85.1458V34.9894H85.1666V35.0518H85.1875V35.2182H85.2083V35.3639H85.1875V35.5303H85.1666V35.5927H85.1458V35.6759H85.1249V35.7175H85.1041V35.7591H85.0832V35.8215H85.0624V35.8631H85.0415V35.8839H85.0207V35.9255H84.9998V35.9463H84.979V35.9671H84.9581V35.9879H84.9373V36.0087H84.9164V36.0295H84.8956V36.0504H84.8747V36.0712H84.8539V36.092H84.833V36.1128H84.8122V36.1336H84.7913V36.1544H84.7705V36.1752H84.7496V36.196H84.7288V36.2168H84.7079V36.2376H84.6662V36.2584H84.6454V36.2792H84.6245V36.3H84.6037V36.3208H84.5828V36.3416H84.562V36.3624H84.5411V36.3832H84.5203V36.404H84.4786V36.4248H84.4577V36.4456H84.4369V36.4664H84.3952V36.4872H84.3744V36.508H84.3535V36.5288H84.3327V36.5496H84.291V36.5704H84.2701V36.5912H84.2493V36.612H84.2076V36.6328H84.1867V36.6536H84.1659V36.6744H84.145V36.6952H84.1033V36.716H84.0825V36.7369H84.0408V36.7577H84.0199V36.7785H83.9782V36.7993H83.9365V36.8201H83.9157V36.8409H83.874V36.8617H83.8531V36.8825H83.8114V36.9033H83.7697V36.9241H83.7489V36.9449H83.7072V36.9657H83.6863V36.9865H83.6446V37.0073H83.6238V37.0281H83.5821V37.0489H83.5404V37.0697H83.4987V37.0905H83.457V37.1113H83.4153V37.1321H83.3736V37.1529H83.3319V37.1737H83.2902V37.1945H83.2485V37.2153H83.2068V37.2361H83.1651V37.2569H83.1234V37.2777H83.0817V37.2985H83.0192V37.3193H82.9775V37.3401H82.9358V37.3609H82.8732V37.3817H82.8107V37.4025H82.7481V37.4233H82.7065V37.4442H82.6439V37.465H82.5814V37.4858H82.5188V37.5066H82.4563V37.5274H82.3729V37.5482H82.2895V37.569H82.2061V37.5898H82.1227V37.6106H82.0601V37.6314H81.9767V37.6522H81.8934V37.673H81.7474V37.6938H81.6015V37.7146H81.4764V37.7354H81.3304V37.7562H81.0594V37.777" fill="url(#paint5_linear_1_683)"/>
<path d="M99.2805 26.9975C98.9088 26.6266 98.4643 26.3281 97.9602 26.1099C97.4519 25.8905 96.9033 25.7792 96.3298 25.7792C95.6209 25.7792 94.969 25.9381 94.3919 26.2517C93.9476 26.4929 93.555 26.8014 93.2206 27.1706C92.896 26.8014 92.5082 26.4932 92.0639 26.2514C91.4862 25.9381 90.8343 25.7792 90.1256 25.7792C89.5523 25.7792 89.0037 25.8905 88.4952 26.1103C87.9905 26.3284 87.5462 26.6272 87.1751 26.9975C86.8021 27.3697 86.5063 27.8145 86.2957 28.3191C86.0845 28.8241 85.9775 29.3702 85.9775 29.9417V36.7162C85.9775 37.0045 86.0841 37.2632 86.2855 37.4642C86.6887 37.8669 87.3821 37.8669 87.7853 37.4642C87.9867 37.2632 88.0933 37.0045 88.0933 36.7162V29.9417C88.0933 29.6576 88.1458 29.3989 88.2534 29.1503C88.3614 28.9011 88.5088 28.6787 88.6908 28.4897C88.8701 28.3046 89.0861 28.1567 89.3329 28.0501C89.5785 27.9439 89.8454 27.8902 90.1256 27.8902C90.68 27.8902 91.1437 28.0808 91.5433 28.4725C91.9436 28.8655 92.1525 29.3488 92.1815 29.9495V36.7162C92.1815 37.0045 92.288 37.2632 92.4897 37.4642C92.8929 37.8669 93.5863 37.8669 93.9895 37.4642C94.1909 37.2632 94.2974 37.0045 94.2974 36.7162V29.9417C94.2974 29.6573 94.3498 29.3986 94.4576 29.1503C94.5656 28.9011 94.7128 28.6787 94.895 28.4897C95.0743 28.3046 95.2901 28.1567 95.5371 28.0501C96.0314 27.8365 96.6275 27.8365 97.1227 28.0501C97.3712 28.1572 97.5926 28.3069 97.7802 28.4932C97.9687 28.6823 98.1186 28.9034 98.2256 29.1503C98.3334 29.3989 98.3855 29.6579 98.3855 29.9417V36.7162C98.3855 37.0043 98.492 37.2632 98.6936 37.4642C98.8952 37.6655 99.1546 37.7717 99.4438 37.7717C99.7325 37.7717 99.9917 37.6655 100.194 37.4639C100.395 37.2629 100.502 37.0043 100.502 36.7162V29.9417C100.502 29.3692 100.39 28.8218 100.17 28.3149C99.9516 27.8125 99.6527 27.3694 99.2805 26.9975Z" fill="url(#paint6_linear_1_683)"/>
<path d="M111.579 26.0627C111.377 26.2638 111.27 26.5223 111.27 26.8114L111.271 31.9554C111.242 32.4707 111.122 32.9611 110.915 33.4123C110.706 33.8629 110.428 34.2575 110.086 34.5844C109.742 34.9129 109.335 35.1777 108.875 35.3712C107.95 35.76 106.829 35.7528 105.916 35.3603C105.451 35.1605 105.036 34.8815 104.685 34.5313C104.335 34.1811 104.055 33.7677 103.854 33.3029C103.655 32.8413 103.554 32.3393 103.554 31.8104V26.8114C103.554 26.523 103.447 26.264 103.246 26.063C103.044 25.862 102.785 25.7559 102.495 25.7559C102.202 25.7559 101.95 25.8591 101.745 26.0634C101.544 26.2644 101.438 26.5233 101.438 26.8114V31.8104C101.438 32.6309 101.596 33.4139 101.91 34.1377C102.221 34.8585 102.65 35.4943 103.185 36.0277C103.72 36.5614 104.357 36.9896 105.08 37.3007C105.804 37.6131 106.589 37.7717 107.412 37.7717C108.301 37.7717 109.136 37.592 109.894 37.2382C110.398 37.0033 110.858 36.7084 111.27 36.3582V40.9442C111.27 41.2332 111.377 41.4918 111.578 41.6922C111.78 41.8935 112.039 42 112.328 42C112.617 42 112.876 41.8939 113.079 41.6922C113.28 41.4911 113.386 41.2326 113.386 40.9442V26.8114C113.386 26.523 113.28 26.2644 113.078 26.0627C112.674 25.6607 111.979 25.662 111.579 26.0627Z" fill="url(#paint7_linear_1_683)"/>
<path d="M121.706 26.8114C121.706 26.5194 121.593 26.2586 121.38 26.0569C121.169 25.8572 120.891 25.7559 120.548 25.7559H120.548C119.743 25.7724 118.976 25.9387 118.266 26.2511C117.56 26.5625 116.931 26.9953 116.396 27.5365C115.862 28.078 115.437 28.714 115.134 29.4265C114.829 30.1412 114.674 30.9118 114.674 31.7168V36.7162C114.674 37.0045 114.78 37.2632 114.982 37.4642C115.183 37.6655 115.443 37.7717 115.732 37.7717C116.021 37.7717 116.28 37.6655 116.482 37.4642C116.683 37.2632 116.79 37.0045 116.79 36.7162V31.7168C116.79 31.2028 116.888 30.7072 117.081 30.244C117.273 29.7803 117.544 29.3724 117.886 29.0312C118.231 28.6875 118.64 28.4074 119.1 28.1997C119.556 27.9932 120.049 27.8815 120.555 27.8669C120.891 27.8669 121.169 27.7656 121.38 27.5659C121.593 27.3642 121.706 27.1034 121.706 26.8114Z" fill="url(#paint8_linear_1_683)"/>
<path d="M131.064 30.7082H123.647C123.736 30.4075 123.859 30.1201 124.015 29.8498C124.236 29.4653 124.518 29.1303 124.852 28.8536C125.19 28.5739 125.577 28.3483 126.002 28.1832C126.841 27.8569 127.846 27.8566 128.687 28.1832C129.111 28.3483 129.498 28.5739 129.836 28.8536C130.172 29.1316 130.458 29.4682 130.687 29.8537C130.847 30.123 130.973 30.4095 131.064 30.7082ZM132.809 29.3844C132.489 28.68 132.052 28.0566 131.509 27.5313C130.968 27.0082 130.341 26.5858 129.645 26.2751C128.942 25.9617 128.184 25.8028 127.38 25.8028C127.38 25.8028 127.379 25.8028 127.378 25.8028C126.527 25.8355 125.727 26.0139 124.999 26.3327C124.269 26.6515 123.628 27.0836 123.095 27.6164C122.56 28.1498 122.134 28.7823 121.83 29.4963C121.525 30.211 121.37 30.9899 121.37 31.8104C121.37 32.663 121.529 33.4618 121.842 34.1839C122.154 34.9061 122.588 35.5392 123.133 36.0662C123.676 36.5916 124.313 37.0075 125.028 37.3027C125.745 37.5985 126.524 37.7484 127.345 37.7484C128.224 37.7484 129.016 37.6196 129.696 37.3652C130.393 37.1058 131.024 36.6631 131.559 36.0626C131.761 35.8617 131.867 35.6027 131.867 35.3146C131.867 35.0262 131.761 34.7672 131.559 34.5663C131.358 34.3649 131.098 34.2588 130.809 34.2588C130.52 34.2588 130.261 34.3649 130.064 34.5614C129.705 34.9055 129.29 35.178 128.831 35.3712C127.969 35.7334 126.896 35.761 125.988 35.414C125.557 35.2489 125.168 35.0207 124.832 34.7349C124.495 34.4488 124.208 34.1044 123.979 33.7111C123.816 33.4321 123.692 33.1333 123.609 32.8193H132.284C132.552 32.8193 132.802 32.7219 133.027 32.5293C133.201 32.3811 133.395 32.1049 133.342 31.6566C133.309 30.8542 133.129 30.0897 132.809 29.3844Z" fill="url(#paint9_linear_1_683)"/>
<path d="M143.979 27.4998C143.443 26.9658 142.806 26.5375 142.085 26.2268C141.36 25.9142 140.575 25.7559 139.753 25.7559C138.93 25.7559 138.145 25.9145 137.42 26.2268C136.698 26.5378 136.061 26.9661 135.526 27.4998C134.991 28.0336 134.562 28.6693 134.25 29.3899C133.937 30.113 133.778 30.8957 133.778 31.7168V36.7162C133.778 37.0045 133.885 37.2632 134.086 37.4642C134.489 37.8669 135.183 37.8669 135.586 37.4642C135.788 37.2632 135.894 37.0045 135.894 36.7162V31.7168C135.894 31.1886 135.995 30.6865 136.194 30.2247C136.396 29.7591 136.675 29.3462 137.026 28.9963C137.376 28.647 137.79 28.3677 138.257 28.167C139.183 27.7688 140.321 27.7692 141.248 28.1667C141.714 28.3677 142.128 28.6467 142.479 28.996C142.83 29.3465 143.109 29.7602 143.31 30.2247C143.51 30.6869 143.611 31.1889 143.611 31.7168V36.7162C143.611 37.0045 143.718 37.2632 143.919 37.4642C144.121 37.6655 144.38 37.7717 144.669 37.7717C144.958 37.7717 145.218 37.6655 145.419 37.4642C145.62 37.2632 145.727 37.0045 145.727 36.7162V31.7168C145.727 30.8973 145.568 30.1146 145.255 29.3899C144.943 28.67 144.514 28.0343 143.979 27.4998Z" fill="url(#paint10_linear_1_683)"/>
<path d="M151.924 37.777V37.7562H151.653V37.7354H151.528V37.7146H151.382V37.6938H151.236V37.673H151.111V37.6522H151.028V37.6314H150.944V37.6106H150.861V37.5898H150.778V37.569H150.694V37.5482H150.611V37.5274H150.528V37.5066H150.486V37.4858H150.423V37.465H150.361V37.4442H150.298V37.4233H150.236V37.4025H150.173V37.3817H150.131V37.3609H150.069V37.3401H150.027V37.3193H149.985V37.2985H149.923V37.2777H149.881V37.2569H149.839V37.2361H149.798V37.2153H149.756V37.1945H149.714V37.1737H149.673V37.1529H149.631V37.1321H149.589V37.1113H149.548V37.0905H149.506V37.0697H149.464V37.0489H149.423V37.0281H149.402V37.0073H149.36V36.9865H149.318V36.9657H149.297V36.9449H149.256V36.9241H149.214V36.9033H149.193V36.8825H149.151V36.8617H149.11V36.8409H149.089V36.8201H149.047V36.7993H149.006V36.7785H148.985V36.7577H148.943V36.7369H148.922V36.716H148.901V36.6952H148.86V36.6744H148.839V36.6536H148.818V36.6328H148.776V36.612H148.755V36.5912H148.735V36.5704H148.693V36.5496H148.672V36.5288H148.651V36.508H148.609V36.4872H148.589V36.4664H148.568V36.4456H148.526V36.4248H148.505V36.404H148.484V36.3832H148.463V36.3624H148.422V36.3416H148.401V36.3208H148.38V36.3H148.359V36.2792H148.338V36.2584H148.318V36.2376H148.297V36.2168H148.255V36.196H148.234V36.1752H148.213V36.1544H148.192V36.1336H148.172V36.1128H148.151V36.092H148.13V36.0712H148.109V36.0504H148.088V36.0295H148.067V36.0087H148.047V35.9879H148.026V35.9671H148.005V35.9463H147.984V35.9255H147.963V35.9047H147.942V35.8839H147.921V35.8423H147.901V35.8215H147.88V35.8007H147.859V35.7799H147.838V35.7591H147.817V35.7383H147.796V35.7175H147.775V35.6759H147.755V35.6551H147.734V35.6343H147.713V35.6135H147.692V35.5927H147.671V35.5511H147.65V35.5303H147.63V35.5095H147.609V35.4679H147.588V35.4471H147.567V35.4263H147.546V35.3847H147.525V35.3639H147.504V35.3431H147.484V35.3014H147.463V35.2806H147.442V35.2598H147.421V35.2182H147.4V35.1974H147.379V35.1766H147.358V35.135H147.338V35.0934H147.317V35.0726H147.296V35.031H147.275V34.9894H147.254V34.9686H147.233V34.927H147.213V34.8854H147.192V34.8646H147.171V34.823H147.15V34.8022H147.129V34.7606H147.108V34.719H147.087V34.6982H147.067V34.6566H147.046V34.6149H147.025V34.5733H147.004V34.5317H146.983V34.4901H146.962V34.4485H146.942V34.4069H146.921V34.3653H146.9V34.3237H146.879V34.2821H146.858V34.2405H146.837V34.1781H146.816V34.1365H146.796V34.0949H146.775V34.0325H146.754V33.9909H146.733V33.9284H146.712V33.866H146.691V33.8036H146.67V33.7412H146.65V33.6996H146.629V33.6372H146.608V33.554H146.587V33.4916H146.566V33.4084H146.545V33.3252H146.525V33.2419H146.504V33.1587H146.483V33.0755H146.462V32.9715H146.441V32.8467H146.42V32.7011H146.399V32.5554H146.379V32.4098H146.358V32.0978H146.337V22.9237H146.358V22.7988H146.379V22.7364H146.399V22.6532H146.42V22.6116H146.441V22.57H146.462V22.5284H146.483V22.4868H146.504V22.4452H146.525V22.4244H146.545V22.4036H146.566V22.362H146.587V22.3412H146.608V22.3204H146.629V22.2996H146.65V22.2788H146.67V22.258H146.691V22.2372H146.712V22.2164H146.754V22.1956H146.775V22.1748H146.796V22.154H146.837V22.1331H146.879V22.1123H146.921V22.0915H146.962V22.0707H147.004V22.0499H147.087V22.0291H147.15V22.0083H147.65V22.0291H147.734V22.0499H147.796V22.0707H147.859V22.0915H147.901V22.1123H147.942V22.1331H147.963V22.154H148.005V22.1748H148.047V22.1956H148.067V22.2164H148.088V22.2372H148.13V22.258H148.151V22.2788H148.172V22.2996H148.192V22.3204H148.213V22.362H148.234V22.3828H148.255V22.4036H148.276V22.4244H148.297V22.466H148.318V22.5076H148.338V22.5492H148.359V22.5908H148.38V22.6116H148.401V22.674H148.422V22.7572H148.443V22.8196H148.463V22.9653H148.484V25.6905H153.405V25.7113H153.571V25.7321H153.655V25.7529H153.738V25.7737H153.801V25.7945H153.842V25.8153H153.884V25.8361H153.926V25.8569H153.968V25.8777H154.009V25.8985H154.03V25.9193H154.051V25.9401H154.093V25.9609H154.113V25.9817H154.134V26.0025H154.155V26.0233H154.176V26.0441H154.197V26.0649H154.218V26.0857H154.239V26.1273H154.259V26.1481H154.28V26.1689H154.301V26.2105H154.322V26.2521H154.343V26.2937H154.364V26.3146H154.385V26.377H154.405V26.4394H154.426V26.5018H154.447V26.6058H154.468V26.9178H154.447V27.0219H154.426V27.0843H154.405V27.1675H154.385V27.2091H154.364V27.2507H154.343V27.2715H154.322V27.3131H154.301V27.3547H154.28V27.3755H154.259V27.4171H154.239V27.4379H154.218V27.4587H154.197V27.4795H154.176V27.5003H154.155V27.5211H154.134V27.5419H154.113V27.5627H154.093V27.5835H154.072V27.6043H154.03V27.6251H154.009V27.6459H153.988V27.6667H153.947V27.6875H153.905V27.7084H153.842V27.7292H153.801V27.75H153.759V27.7708H153.676V27.7916H153.592V27.8124H153.446V27.8332H148.484V32.181H148.505V32.3266H148.526V32.4722H148.547V32.5971H148.568V32.6803H148.589V32.7635H148.609V32.8467H148.63V32.9299H148.651V32.9923H148.672V33.0339H148.693V33.0963H148.714V33.1587H148.735V33.2211H148.755V33.2628H148.776V33.3252H148.797V33.3668H148.818V33.4084H148.839V33.45H148.86V33.4916H148.88V33.5332H148.901V33.5748H148.922V33.6164H148.943V33.658H148.964V33.6788H148.985V33.7204H149.006V33.762H149.026V33.7828H149.047V33.8244H149.068V33.866H149.089V33.8868H149.11V33.9284H149.131V33.9492H149.151V33.9909H149.172V34.0117H149.193V34.0325H149.214V34.0741H149.235V34.0949H149.256V34.1157H149.277V34.1573H149.297V34.1781H149.318V34.1989H149.339V34.2405H149.36V34.2613H149.381V34.2821H149.402V34.3029H149.423V34.3237H149.443V34.3653H149.464V34.3861H149.485V34.4069H149.506V34.4277H149.527V34.4485H149.548V34.4693H149.568V34.4901H149.589V34.5109H149.61V34.5317H149.631V34.5525H149.652V34.5733H149.673V34.5941H149.694V34.6149H149.714V34.6357H149.735V34.6566H149.756V34.6774H149.798V34.6982H149.819V34.719H149.839V34.7398H149.86V34.7606H149.881V34.7814H149.902V34.8022H149.944V34.823H149.965V34.8438H149.985V34.8646H150.027V34.8854H150.048V34.9062H150.069V34.927H150.111V34.9478H150.131V34.9686H150.173V34.9894H150.194V35.0102H150.236V35.031H150.256V35.0518H150.298V35.0726H150.34V35.0934H150.361V35.1142H150.402V35.135H150.423V35.1558H150.465V35.1766H150.507V35.1974H150.548V35.2182H150.59V35.239H150.632V35.2598H150.673V35.2806H150.715V35.3014H150.757V35.3222H150.799V35.3431H150.84V35.3639H150.903V35.3847H150.944V35.4055H151.007V35.4263H151.07V35.4471H151.132V35.4679H151.195V35.4887H151.278V35.5095H151.361V35.5303H151.445V35.5511H151.528V35.5719H151.632V35.5927H151.778V35.6135H151.904V35.6343H152.258V35.6551H152.404V35.6343H152.758V35.6135H152.904V35.5927H153.05V35.5719H153.134V35.5511H153.238V35.5303H153.321V35.5095H153.405V35.4887H153.467V35.4679H153.53V35.4471H153.592V35.4263H153.655V35.4055H153.717V35.3847H153.759V35.3639H153.822V35.3431H153.863V35.3222H153.905V35.3014H153.947V35.2806H153.988V35.2598H154.03V35.239H154.072V35.2182H154.113V35.1974H154.155V35.1766H154.197V35.1558H154.218V35.135H154.259V35.1142H154.301V35.0934H154.322V35.0726H154.364V35.0518H154.405V35.031H154.426V35.0102H154.468V34.9894H154.489V34.9686H154.53V34.9478H154.551V34.927H154.572V34.9062H154.614V34.8854H154.635V34.8646H154.656V34.8438H154.697V34.823H154.718V34.8022H154.739V34.7814H154.76V34.7606H154.801V34.7398H154.822V34.719H154.843V34.6982H154.864V34.6774H154.885V34.6566H154.906V34.6357H154.927V34.6149H154.947V34.5941H154.968V34.5733H154.989V34.5525H155.01V34.5317H155.031V34.5109H155.052V34.4901H155.093V34.4693H155.114V34.4485H155.135V34.4277H155.156V34.4069H155.198V34.3861H155.218V34.3653H155.26V34.3445H155.281V34.3237H155.344V34.3029H155.385V34.2821H155.448V34.2613H155.51V34.2405H155.594V34.2197H156.032V34.2405H156.136V34.2613H156.177V34.2821H156.24V34.3029H156.282V34.3237H156.323V34.3445H156.365V34.3653H156.407V34.3861H156.449V34.4069H156.469V34.4277H156.49V34.4485H156.532V34.4693H156.553V34.4901H156.574V34.5317H156.594V34.5525H156.615V34.5941H156.636V34.6149H156.657V34.6566H156.678V34.6774H156.699V34.719H156.72V34.7398H156.74V34.7814H156.761V34.8438H156.782V34.9062H156.803V34.9686H156.824V35.031H156.845V35.1142H156.866V35.4471H156.845V35.5511H156.824V35.6343H156.803V35.6967H156.782V35.7383H156.761V35.7799H156.74V35.8215H156.72V35.8631H156.699V35.9047H156.678V35.9255H156.657V35.9463H156.636V35.9671H156.615V35.9879H156.594V36.0087H156.574V36.0504H156.553V36.0712H156.511V36.092H156.49V36.1128H156.469V36.1336H156.449V36.1544H156.428V36.1752H156.407V36.196H156.386V36.2168H156.365V36.2376H156.344V36.2584H156.323V36.2792H156.303V36.3H156.282V36.3208H156.261V36.3416H156.219V36.3624H156.198V36.3832H156.177V36.404H156.157V36.4248H156.115V36.4456H156.094V36.4664H156.073V36.4872H156.052V36.508H156.011V36.5288H155.99V36.5496H155.969V36.5704H155.927V36.5912H155.906V36.612H155.886V36.6328H155.865V36.6536H155.823V36.6744H155.802V36.6952H155.781V36.716H155.74V36.7369H155.719V36.7577H155.677V36.7785H155.635V36.7993H155.615V36.8201H155.573V36.8409H155.552V36.8617H155.51V36.8825H155.469V36.9033H155.448V36.9241H155.406V36.9449H155.385V36.9657H155.344V36.9865H155.302V37.0073H155.281V37.0281H155.239V37.0489H155.198V37.0697H155.156V37.0905H155.114V37.1113H155.073V37.1321H155.031V37.1529H155.01V37.1737H154.968V37.1945H154.927V37.2153H154.885V37.2361H154.843V37.2569H154.781V37.2777H154.739V37.2985H154.697V37.3193H154.635V37.3401H154.593V37.3609H154.53V37.3817H154.489V37.4025H154.426V37.4233H154.364V37.4442H154.301V37.465H154.239V37.4858H154.197V37.5066H154.113V37.5274H154.03V37.5482H153.968V37.569H153.884V37.5898H153.801V37.6106H153.717V37.6314H153.634V37.6522H153.551V37.673H153.405V37.6938H153.28V37.7146H153.134V37.7354H152.988V37.7562H152.737V37.777" fill="url(#paint11_linear_1_683)"/>
</g>
<defs>
<linearGradient id="paint0_linear_1_683" x1="34.2431" y1="37.7484" x2="34.2431" y2="25.8028" gradientUnits="userSpaceOnUse">
<stop stop-color="#41A36B"/>
<stop offset="0.157635" stop-color="#41A36B"/>
<stop offset="0.571429" stop-color="#5DC389"/>
<stop offset="1" stop-color="#5DC389"/>
</linearGradient>
<linearGradient id="paint1_linear_1_683" x1="43.4722" y1="37.7717" x2="43.4722" y2="25.7559" gradientUnits="userSpaceOnUse">
<stop stop-color="#41A36B"/>
<stop offset="0.157635" stop-color="#41A36B"/>
<stop offset="0.571429" stop-color="#5DC389"/>
<stop offset="1" stop-color="#5DC389"/>
</linearGradient>
<linearGradient id="paint2_linear_1_683" x1="57.956" y1="37.7484" x2="57.956" y2="22.0472" gradientUnits="userSpaceOnUse">
<stop stop-color="#41A36B"/>
<stop offset="0.157635" stop-color="#41A36B"/>
<stop offset="0.571429" stop-color="#5DC389"/>
<stop offset="1" stop-color="#5DC389"/>
</linearGradient>
<linearGradient id="paint3_linear_1_683" x1="72.3155" y1="24.8767" x2="72.3155" y2="22.2983" gradientUnits="userSpaceOnUse">
<stop stop-color="#41A36B"/>
<stop offset="0.157635" stop-color="#41A36B"/>
<stop offset="0.571429" stop-color="#5DC389"/>
<stop offset="1" stop-color="#5DC389"/>
</linearGradient>
<linearGradient id="paint4_linear_1_683" x1="72.3158" y1="37.7717" x2="72.3158" y2="25.7848" gradientUnits="userSpaceOnUse">
<stop stop-color="#41A36B"/>
<stop offset="0.157635" stop-color="#41A36B"/>
<stop offset="0.571429" stop-color="#5DC389"/>
<stop offset="1" stop-color="#5DC389"/>
</linearGradient>
<linearGradient id="paint5_linear_1_683" x1="79.944" y1="37.777" x2="79.944" y2="22.0083" gradientUnits="userSpaceOnUse">
<stop stop-color="#41A36B"/>
<stop offset="0.157635" stop-color="#41A36B"/>
<stop offset="0.571429" stop-color="#5DC389"/>
<stop offset="1" stop-color="#5DC389"/>
</linearGradient>
<linearGradient id="paint6_linear_1_683" x1="93.2395" y1="37.7717" x2="93.2395" y2="25.7792" gradientUnits="userSpaceOnUse">
<stop stop-color="#41A36B"/>
<stop offset="0.157635" stop-color="#41A36B"/>
<stop offset="0.571429" stop-color="#5DC389"/>
<stop offset="1" stop-color="#5DC389"/>
</linearGradient>
<linearGradient id="paint7_linear_1_683" x1="107.412" y1="42" x2="107.412" y2="25.7559" gradientUnits="userSpaceOnUse">
<stop stop-color="#41A36B"/>
<stop offset="0.157635" stop-color="#41A36B"/>
<stop offset="0.571429" stop-color="#5DC389"/>
<stop offset="1" stop-color="#5DC389"/>
</linearGradient>
<linearGradient id="paint8_linear_1_683" x1="118.19" y1="37.7717" x2="118.19" y2="25.7559" gradientUnits="userSpaceOnUse">
<stop stop-color="#41A36B"/>
<stop offset="0.157635" stop-color="#41A36B"/>
<stop offset="0.571429" stop-color="#5DC389"/>
<stop offset="1" stop-color="#5DC389"/>
</linearGradient>
<linearGradient id="paint9_linear_1_683" x1="127.36" y1="37.7484" x2="127.36" y2="25.8028" gradientUnits="userSpaceOnUse">
<stop stop-color="#41A36B"/>
<stop offset="0.157635" stop-color="#41A36B"/>
<stop offset="0.571429" stop-color="#5DC389"/>
<stop offset="1" stop-color="#5DC389"/>
</linearGradient>
<linearGradient id="paint10_linear_1_683" x1="139.753" y1="37.7717" x2="139.753" y2="25.7559" gradientUnits="userSpaceOnUse">
<stop stop-color="#41A36B"/>
<stop offset="0.157635" stop-color="#41A36B"/>
<stop offset="0.571429" stop-color="#5DC389"/>
<stop offset="1" stop-color="#5DC389"/>
</linearGradient>
<linearGradient id="paint11_linear_1_683" x1="151.601" y1="37.777" x2="151.601" y2="22.0083" gradientUnits="userSpaceOnUse">
<stop stop-color="#41A36B"/>
<stop offset="0.157635" stop-color="#41A36B"/>
<stop offset="0.571429" stop-color="#5DC389"/>
<stop offset="1" stop-color="#5DC389"/>
</linearGradient>
<clipPath id="clip0_1_683">
<rect width="127.857" height="20" fill="white" transform="translate(29 22)"/>
</clipPath>
</defs>
</svg>
