<svg width="186" height="64" viewBox="0 0 186 64" fill="none" xmlns="http://www.w3.org/2000/svg">
<g style="mix-blend-mode:luminosity">
<path fill-rule="evenodd" clip-rule="evenodd" d="M56.2958 38.6716H52.8696V20H56.2958V38.6716ZM37.0051 31.0454C37.0051 26.7701 40.2368 23.4708 44.2626 23.4708C48.2883 23.4708 51.4926 26.7701 51.4926 31.0454C51.4926 35.3201 48.2883 38.6199 44.2626 38.6199C42.8995 38.6199 41.6278 38.2416 40.5417 37.5756V44H37V31.0591H37.0051V31.0454ZM40.6022 31.0591C40.6022 33.3831 42.2179 35.0184 44.3265 35.0184C46.408 35.0184 48.024 33.3831 48.024 31.0591C48.024 28.735 46.408 27.0997 44.3265 27.0997C42.2179 27.0997 40.6022 28.735 40.6022 31.0591ZM72.1165 30.7103C72.1165 26.6005 68.8692 23.4285 64.8238 23.4285C60.7786 23.4285 57.5591 26.6005 57.5591 30.7103C57.5591 34.8201 60.7786 37.9921 64.8238 37.9921C66.1935 37.9921 67.4712 37.6288 68.5628 36.9886V37.9998H72.1214V30.7236H72.1165V30.7103ZM64.7595 34.5302C62.668 34.5302 61.0442 32.9578 61.0442 30.7236C61.0442 28.4894 62.668 26.9171 64.7595 26.9171C66.8784 26.9171 68.5021 28.4894 68.5021 30.7236C68.5021 32.9578 66.8784 34.5302 64.7595 34.5302ZM79.7107 33.7413L76.0701 24.2856H72.1214L77.8624 37.9063C77.1903 39.7917 76.1821 40.6359 74.1937 40.6078V43.985C77.7503 44.1821 80.1306 42.409 81.5868 38.3566L86.6838 24.2856H82.8192L79.7107 33.7413ZM92.7898 26.6656C91.856 26.6656 91.0974 27.0595 91.0974 27.8197C91.0974 28.6279 92.231 28.9276 93.6185 29.2942C95.8065 29.8725 98.6256 30.6176 98.6256 33.7871C98.6256 36.8273 95.8828 38.2912 92.7604 38.2912C89.8429 38.2912 87.6833 37.109 86.6329 34.9413L89.9009 33.1679C90.3093 34.3221 91.3015 34.9975 92.7604 34.9975C93.9569 34.9975 94.7741 34.6035 94.7741 33.7871C94.7741 32.9823 93.6189 32.6654 92.2135 32.2799C90.0312 31.6814 87.2457 30.9174 87.2457 27.9039C87.2457 25.0328 89.7844 23.4285 92.7898 23.4285C95.1533 23.4285 97.1958 24.4698 98.3337 26.4123L95.1242 28.1011C94.6864 27.2002 93.8696 26.6656 92.7898 26.6656ZM107.036 23.4285C102.99 23.4285 99.7431 26.7347 99.7431 31.0186C99.7431 31.0211 99.7431 31.0236 99.7431 31.0261C99.7432 31.0282 99.7432 31.0302 99.7433 31.0322H99.7385V43.9997H103.297V37.5623C104.388 38.2297 105.666 38.6084 107.036 38.6084C111.081 38.6084 114.301 35.3022 114.301 31.0186C114.301 26.7347 111.081 23.4285 107.036 23.4285ZM107.1 35.0002C104.981 35.0002 103.358 33.3612 103.358 31.0322C103.358 28.7034 104.981 27.0648 107.1 27.0648C109.192 27.0648 110.816 28.7034 110.816 31.0322C110.816 33.3612 109.192 35.0002 107.1 35.0002ZM122.823 23.4285C118.777 23.4285 115.556 26.602 115.556 30.7141C115.556 34.826 118.777 37.9998 122.823 37.9998C126.87 37.9998 130.119 34.826 130.119 30.7141C130.119 26.602 126.87 23.4285 122.823 23.4285ZM122.759 34.5358C120.667 34.5358 119.043 32.9628 119.043 30.7275C119.043 28.4921 120.667 26.9192 122.759 26.9192C124.879 26.9192 126.503 28.4921 126.503 30.7275C126.503 32.9628 124.879 34.5358 122.759 34.5358ZM131.38 30.676V38.0367H134.987H135.079V30.6896C135.079 28.4658 136.801 26.9011 139.021 26.9011C139.044 26.9011 139.067 26.9011 139.089 26.9014V23.4285C134.797 23.4285 131.38 26.5858 131.38 30.676ZM145.51 31.3172C145.51 33.3535 146.684 34.8482 148.33 35.1642H148.36V38.7827C144.884 38.4029 142.218 35.2897 142.218 31.3307V26.8668H140.65V23.389H142.218V20H145.523L145.529 20.008H145.51V23.389H147.734V26.8668H145.51V31.3172Z" fill="#FF053F"/>
</g>
</svg>
