<svg width="186" height="64" viewBox="0 0 186 64" fill="none" xmlns="http://www.w3.org/2000/svg">
<g style="mix-blend-mode:luminosity">
<path fill-rule="evenodd" clip-rule="evenodd" d="M72.281 18H60.3801V20.4706H72.281V18ZM60.4992 25.4118H72.162V43.5294H60.4992V25.4118ZM58 46V22.9412H74.6612V46H58Z" fill="#67B7AE"/>
<path d="M88.3698 41.8824L83.2715 28.0866H86.2505L90.0692 39.0955L93.888 28.0866H96.887L91.7687 41.8824H88.3698Z" fill="#808A9E"/>
<path d="M99.4992 41.8824V28.0866H102.318V41.8824H99.4992Z" fill="#808A9E"/>
<path d="M115.308 41.8824L114.408 39.2932H108.97L108.07 41.8824H105.091L110.029 28.0471H113.368L118.287 41.8824H115.308ZM109.709 37.1586H113.688L111.689 31.4071L109.709 37.1586Z" fill="#808A9E"/>
<path d="M121.081 28.0866H123.9V39.7675H128.378V41.8824H121.081V28.0866Z" fill="#808A9E"/>
</g>
</svg>
